<?xml version="1.0" encoding="utf-8"?>
<!-- Generator: Adobe Illustrator 16.0.0, SVG Export Plug-In . SVG Version: 6.00 Build 0)  -->
<!DOCTYPE svg PUBLIC "-//W3C//DTD SVG 1.1//EN" "http://www.w3.org/Graphics/SVG/1.1/DTD/svg11.dtd">
<svg version="1.1" id="Layer_1" xmlns="http://www.w3.org/2000/svg" xmlns:xlink="http://www.w3.org/1999/xlink" x="0px" y="0px"
	 width="210px" height="152px" viewBox="0 0 210 152" enable-background="new 0 0 210 152" xml:space="preserve">
<g>
	<path d="M201.569,130.438c-0.41,0-0.824-0.082-1.217-0.248l-26.9-11.416c-2.833,0.564-5.73,0.85-8.628,0.85H58.638
		c-24.275,0-44.025-19.75-44.025-44.026V45.526C14.612,21.25,34.362,1.5,58.638,1.5h106.187c24.275,0,44.026,19.75,44.026,44.026
		v30.071c0,11.107-4.086,21.585-11.545,29.721l7.216,20.985c0.399,1.165,0.077,2.457-0.823,3.297
		C203.109,130.148,202.347,130.438,201.569,130.438z M173.769,112.4c0.416,0,0.83,0.084,1.219,0.248l21.357,9.063l-5.558-16.163
		c-0.388-1.128-0.099-2.378,0.745-3.222c7.145-7.138,11.079-16.631,11.079-26.729V45.526c0-20.836-16.952-37.787-37.787-37.787
		H58.638c-20.836,0-37.787,16.951-37.787,37.787v30.071c0,20.836,16.951,37.787,37.787,37.787h106.187
		c2.782,0,5.562-0.306,8.267-0.909C173.313,112.426,173.542,112.4,173.769,112.4z"/>
	<path d="M7.661,151.5c-0.775,0-1.539-0.289-2.129-0.838c-0.898-0.84-1.223-2.131-0.821-3.296l5.771-16.787
		c-6.032-6.702-9.333-15.279-9.333-24.364V81.699c0-4.44,0.791-8.781,2.349-12.9c0.609-1.611,2.409-2.424,4.021-1.814
		c1.611,0.61,2.425,2.41,1.815,4.021c-1.29,3.412-1.945,7.009-1.945,10.692v24.516c0,8.079,3.147,15.674,8.864,21.384
		c0.842,0.843,1.132,2.093,0.744,3.221l-4.111,11.954l16.223-6.883c0.598-0.254,1.262-0.314,1.898-0.173
		c2.162,0.481,4.387,0.727,6.611,0.727h86.57c9.104,0,17.637-4.046,23.409-11.103c1.091-1.333,3.058-1.529,4.39-0.438
		c1.334,1.091,1.529,3.057,0.438,4.39c-6.962,8.51-17.255,13.391-28.237,13.391h-86.57c-2.339,0-4.68-0.225-6.973-0.668
		l-21.768,9.236C8.485,151.418,8.073,151.5,7.661,151.5z"/>
	<g>
		<path d="M165.487,41.279h-44.57c-1.723,0-3.119-1.397-3.119-3.12s1.396-3.119,3.119-3.119h44.57c1.723,0,3.121,1.396,3.121,3.119
			S167.21,41.279,165.487,41.279z"/>
		<path d="M107.883,41.279H97.044c-1.723,0-3.118-1.397-3.118-3.12s1.396-3.119,3.118-3.119h10.839c1.723,0,3.118,1.396,3.118,3.119
			S109.605,41.279,107.883,41.279z"/>
		<path d="M83.631,41.279H57.974c-1.724,0-3.119-1.397-3.119-3.12s1.396-3.119,3.119-3.119h25.657c1.724,0,3.12,1.396,3.12,3.119
			S85.354,41.279,83.631,41.279z"/>
		<path d="M165.487,64.513h-27.055c-1.723,0-3.119-1.397-3.119-3.12s1.396-3.12,3.119-3.12h27.055c1.723,0,3.121,1.397,3.121,3.12
			S167.21,64.513,165.487,64.513z"/>
		<path d="M126.435,64.513H57.974c-1.724,0-3.119-1.397-3.119-3.12s1.396-3.12,3.119-3.12h68.461c1.723,0,3.119,1.397,3.119,3.12
			S128.157,64.513,126.435,64.513z"/>
		<path d="M89.596,87.746H57.974c-1.724,0-3.119-1.396-3.119-3.119s1.396-3.12,3.119-3.12h31.622c1.723,0,3.118,1.397,3.118,3.12
			S91.318,87.746,89.596,87.746z"/>
	</g>
</g>
</svg>
